<svg width="18" height="19" viewBox="0 0 18 19" fill="none" xmlns="http://www.w3.org/2000/svg">
<path d="M17.4 1.11329C16.88 0.593295 16.04 0.593295 15.52 1.11329L8.99996 7.61996L2.47996 1.09996C1.95996 0.579961 1.11996 0.579961 0.599961 1.09996C0.0799609 1.61996 0.0799609 2.45996 0.599961 2.97996L7.11996 9.49996L0.599961 16.02C0.0799609 16.54 0.0799609 17.38 0.599961 17.9C1.11996 18.42 1.95996 18.42 2.47996 17.9L8.99996 11.38L15.52 17.9C16.04 18.42 16.88 18.42 17.4 17.9C17.92 17.38 17.92 16.54 17.4 16.02L10.88 9.49996L17.4 2.97996C17.9066 2.47329 17.9066 1.61996 17.4 1.11329V1.11329Z" fill="#111322"/>
</svg>
