<svg width="16" height="17" viewBox="0 0 16 17" fill="none" xmlns="http://www.w3.org/2000/svg">
<g clip-path="url(#clip0_3423_6158)">
<path d="M12.2 4.30665C11.94 4.04665 11.52 4.04665 11.26 4.30665L7.99998 7.55998L4.73998 4.29998C4.47998 4.03998 4.05998 4.03998 3.79998 4.29998C3.53998 4.55998 3.53998 4.97998 3.79998 5.23998L7.05998 8.49998L3.79998 11.76C3.53998 12.02 3.53998 12.44 3.79998 12.7C4.05998 12.96 4.47998 12.96 4.73998 12.7L7.99998 9.43998L11.26 12.7C11.52 12.96 11.94 12.96 12.2 12.7C12.46 12.44 12.46 12.02 12.2 11.76L8.93998 8.49998L12.2 5.23998C12.4533 4.98665 12.4533 4.55998 12.2 4.30665Z" fill="#F33636"/>
</g>
<defs>
<clipPath id="clip0_3423_6158">
<rect width="16" height="16" fill="white" transform="translate(0 0.5)"/>
</clipPath>
</defs>
</svg>
